<?xml version="1.0" encoding="UTF-8"?>
<svg version="1.1" xmlns="http://www.w3.org/2000/svg" width="1024" height="1024">
<path d="M0 0 C337.92 0 675.84 0 1024 0 C1024 337.92 1024 675.84 1024 1024 C686.08 1024 348.16 1024 0 1024 C0 686.08 0 348.16 0 0 Z " fill="#FDFEFD" transform="translate(0,0)"/>
<path d="M0 0 C1.44967046 0.6341091 2.9001891 1.26628277 4.3515625 1.89648438 C28.54857764 12.46659258 28.54857764 12.46659258 31.375 19.3125 C32.27468294 25.61028057 31.11356035 30.15809873 27.375 35.3125 C25.26513255 37.53918896 23.09968695 39.68667366 20.88012695 41.80371094 C16.97947097 45.56896797 13.57612336 49.59690391 10.25 53.875 C9.7768335 54.4829541 9.30366699 55.0909082 8.81616211 55.71728516 C6.37889868 58.87507048 6.37889868 58.87507048 4.375 62.3125 C5.10460937 62.07015625 5.83421875 61.8278125 6.5859375 61.578125 C13.16965198 59.46483393 19.75895819 57.65530626 26.5 56.125 C27.21462402 55.95838867 27.92924805 55.79177734 28.66552734 55.62011719 C38.44903442 53.46078433 48.26282455 53.1486394 58.25 53.1875 C59.23613281 53.18363281 60.22226562 53.17976563 61.23828125 53.17578125 C73.52906376 53.19176406 85.13619334 54.38916247 97.125 57.125 C98.27871094 57.37314453 99.43242188 57.62128906 100.62109375 57.87695312 C116.37594645 61.40697428 116.37594645 61.40697428 122.4140625 66.94140625 C126.13848475 69.92389214 129.14062965 70.47149098 133.75 71.25 C142.74723904 73.02728893 150.93572393 75.75892393 159.375 79.3125 C160.2201416 79.66538086 161.0652832 80.01826172 161.93603516 80.38183594 C164.65348542 81.52721158 167.35947701 82.69601146 170.0625 83.875 C171.33746338 84.42063599 171.33746338 84.42063599 172.63818359 84.97729492 C177.51395282 87.1571713 180.86992946 89.26818784 184.375 93.3125 C184.705 93.6425 185.035 93.9725 185.375 94.3125 C185.76184641 98.33570262 185.79152015 100.61829975 183.6875 104.125 C181.28722327 106.39553204 179.434373 107.19123726 176.375 108.3125 C181.67039436 112.03811343 186.96568096 115.75373747 192.375 119.3125 C192.395625 118.28125 192.41625 117.25 192.4375 116.1875 C193.51450971 111.73585986 194.70531374 110.06815836 198.296875 107.3671875 C201.3898152 105.79746221 203.54990341 105.72794727 206.9296875 106.38671875 C215.44607499 109.61097408 222.28175953 116.85058091 228.828125 122.953125 C230.94452736 124.9137186 233.09891492 126.77729675 235.3125 128.625 C251.3647692 142.72364617 264.0472015 160.72438594 274.375 179.3125 C274.74431641 179.96895508 275.11363281 180.62541016 275.49414062 181.30175781 C312.82341903 248.04294637 317.52989846 329.95663537 297.54296875 402.90234375 C294.48829731 413.64010265 290.70220624 424.02682149 286.375 434.3125 C285.81594971 435.641604 285.81594971 435.641604 285.24560547 436.99755859 C273.28385596 465.07105234 257.77270243 490.36050411 236.84765625 512.65234375 C234.84578103 514.80601994 232.94312291 516.99230983 231.0625 519.25 C221.79481611 529.88577056 210.6635035 538.92128082 199.375 547.3125 C198.72692383 547.7957373 198.07884766 548.27897461 197.41113281 548.77685547 C186.53562753 556.82221602 175.21318738 563.7815041 163.375 570.3125 C162.61493652 570.73772949 161.85487305 571.16295898 161.07177734 571.60107422 C147.94306759 578.91793174 134.35766162 584.82447158 120.375 590.3125 C119.45315918 590.67617676 118.53131836 591.03985352 117.58154297 591.41455078 C89.78199213 602.26694254 60.70771304 608.49847648 31.25170898 612.87182617 C28.4084263 613.30737953 25.58043792 613.80069623 22.75 614.3125 C17.6194059 615.16872267 12.48178807 615.81065334 7.3125 616.375 C6.61237793 616.45427734 5.91225586 616.53355469 5.19091797 616.61523438 C-14.1599392 618.63563534 -33.63027117 618.55884887 -53.0625 618.5625 C-53.78260128 618.56279457 -54.50270256 618.56308914 -55.24462509 618.56339264 C-95.06119279 618.56601844 -134.05790434 615.61681905 -172.8828125 606.21484375 C-175.34644839 605.62079376 -177.82098298 605.07000239 -180.3046875 604.56640625 C-190.58345032 602.40517745 -200.4826804 599.18677226 -210.4375 595.875 C-211.14705841 595.63997772 -211.85661682 595.40495544 -212.587677 595.16281128 C-221.4274472 592.2238007 -230.08404899 589.04893444 -238.625 585.3125 C-239.56174561 584.90700928 -240.49849121 584.50151855 -241.46362305 584.08374023 C-270.76349571 571.27306048 -297.79425842 555.06761746 -321.38671875 533.3671875 C-323.49539527 531.43147397 -325.64286328 529.55430024 -327.8125 527.6875 C-334.28218811 522.03626641 -340.11010243 515.89277551 -345.625 509.3125 C-346.04910156 508.80750977 -346.47320312 508.30251953 -346.91015625 507.78222656 C-366.81073234 483.9320236 -383.94595981 455.8920606 -393.625 426.25 C-394.60791465 423.22058477 -394.60791465 423.22058477 -396.07421875 420.0390625 C-397.9607405 415.70775048 -399.20535634 411.24158323 -400.4375 406.6875 C-400.81890137 405.28177734 -400.81890137 405.28177734 -401.20800781 403.84765625 C-403.35501563 395.72327328 -405.16357616 387.53859871 -406.875 379.3125 C-407.12096924 378.13349121 -407.36693848 376.95448242 -407.62036133 375.73974609 C-411.58464655 356.19318072 -412.86013906 336.88545238 -412.875 317 C-412.87567474 316.17512085 -412.87634949 315.3502417 -412.87704468 314.50036621 C-412.8316441 279.23387567 -407.36952279 242.98054364 -393.625 210.3125 C-393.32086182 209.58788574 -393.01672363 208.86327148 -392.70336914 208.11669922 C-380.26083121 178.88329797 -363.67437541 153.21156232 -341.625 130.3125 C-341.12323242 129.78881836 -340.62146484 129.26513672 -340.10449219 128.72558594 C-333.34993049 121.71039807 -326.36110484 115.25472546 -318.625 109.3125 C-318.06441895 108.8808252 -317.50383789 108.44915039 -316.92626953 108.00439453 C-296.52645262 92.3927987 -273.84809328 79.88970602 -249.625 71.3125 C-247.78615234 70.63960937 -247.78615234 70.63960937 -245.91015625 69.953125 C-220.92752947 61.16444848 -195.02897379 57.03391177 -168.625 57.3125 C-169.74931913 54.89551449 -170.87442975 52.4789028 -172 50.0625 C-172.31710937 49.38058594 -172.63421875 48.69867188 -172.9609375 47.99609375 C-173.2703125 47.33222656 -173.5796875 46.66835937 -173.8984375 45.984375 C-174.34751465 45.01794067 -174.34751465 45.01794067 -174.80566406 44.03198242 C-175.43945831 42.70188324 -176.12055464 41.39426641 -176.8203125 40.09765625 C-178.4055605 36.5808682 -178.35599123 33.05567922 -177.625 29.3125 C-175.18189402 25.108454 -172.13841911 22.16482807 -167.625 20.3125 C-156.09703059 19.14016413 -143.3323049 23.212211 -132.625 27.3125 C-131.54476563 27.72113281 -130.46453125 28.12976563 -129.3515625 28.55078125 C-110.30251483 35.95874423 -90.88055603 44.76561211 -74.625 57.3125 C-74.53347656 56.64089844 -74.44195312 55.96929687 -74.34765625 55.27734375 C-73.43447802 51.53084494 -71.81320806 48.28416521 -70.0625 44.875 C-69.70389893 44.17197754 -69.34529785 43.46895508 -68.97583008 42.74462891 C-67.86988551 40.59465138 -66.75019017 38.45245982 -65.625 36.3125 C-65.30080078 35.69068848 -64.97660156 35.06887695 -64.64257812 34.42822266 C-59.59772322 24.8498157 -53.54370609 16.59019254 -46.625 8.3125 C-45.83738281 7.34699219 -45.04976562 6.38148438 -44.23828125 5.38671875 C-30.56227997 -10.72375397 -17.56024829 -7.93648935 0 0 Z " fill="#D9140C" transform="translate(563.625,202.6875)"/>
<path d="M0 0 C1.44967046 0.6341091 2.9001891 1.26628277 4.3515625 1.89648438 C28.54857764 12.46659258 28.54857764 12.46659258 31.375 19.3125 C32.27468294 25.61028057 31.11356035 30.15809873 27.375 35.3125 C25.26513255 37.53918896 23.09968695 39.68667366 20.88012695 41.80371094 C16.97947097 45.56896797 13.57612336 49.59690391 10.25 53.875 C9.7768335 54.4829541 9.30366699 55.0909082 8.81616211 55.71728516 C6.37889868 58.87507048 6.37889868 58.87507048 4.375 62.3125 C5.10460937 62.07015625 5.83421875 61.8278125 6.5859375 61.578125 C13.16965198 59.46483393 19.75895819 57.65530626 26.5 56.125 C27.21462402 55.95838867 27.92924805 55.79177734 28.66552734 55.62011719 C38.44903442 53.46078433 48.26282455 53.1486394 58.25 53.1875 C59.23613281 53.18363281 60.22226562 53.17976563 61.23828125 53.17578125 C73.52906376 53.19176406 85.13619334 54.38916247 97.125 57.125 C98.27871094 57.37314453 99.43242188 57.62128906 100.62109375 57.87695312 C116.37594645 61.40697428 116.37594645 61.40697428 122.4140625 66.94140625 C126.13848475 69.92389214 129.14062965 70.47149098 133.75 71.25 C142.74723904 73.02728893 150.93572393 75.75892393 159.375 79.3125 C160.2201416 79.66538086 161.0652832 80.01826172 161.93603516 80.38183594 C164.65348542 81.52721158 167.35947701 82.69601146 170.0625 83.875 C171.33746338 84.42063599 171.33746338 84.42063599 172.63818359 84.97729492 C177.51395282 87.1571713 180.86992946 89.26818784 184.375 93.3125 C184.705 93.6425 185.035 93.9725 185.375 94.3125 C185.76184641 98.33570262 185.79152015 100.61829975 183.6875 104.125 C180.72984629 106.92278053 178.60895244 108.31704055 174.453125 108.30859375 C171.1687262 108.0184307 168.94013435 107.6565784 166.078125 105.9140625 C162.85959082 104.00712751 159.69251913 102.99443759 156.125 101.875 C151.97514072 100.57063552 148.07766209 99.20912026 144.14453125 97.35546875 C138.71053775 94.88710887 133.09554109 93.47669346 127.3125 92.0625 C126.27544922 91.794375 125.23839844 91.52625 124.16992188 91.25 C114.59444717 88.86979323 107.80991051 88.6886251 98.5625 92.3125 C90.70439189 95.3125 90.70439189 95.3125 87.375 95.3125 C87.375 95.9725 87.375 96.6325 87.375 97.3125 C86.694375 97.56902344 86.01375 97.82554687 85.3125 98.08984375 C78.93253258 100.60959152 72.96758858 103.50367295 67 106.875 C66.33484375 107.25068115 65.6696875 107.6263623 64.984375 108.01342773 C57.29513206 112.14951185 57.29513206 112.14951185 51.375 118.3125 C49.3515625 119.59375 49.3515625 119.59375 47 120.8125 C43.89734353 122.43127729 41.1296173 124.14905628 38.375 126.3125 C38.74685242 128.9383502 39.16718816 130.10942192 41.08984375 131.98828125 C41.82332031 132.52839844 42.55679687 133.06851563 43.3125 133.625 C44.12460937 134.22570312 44.93671875 134.82640625 45.7734375 135.4453125 C46.63195312 136.06148437 47.49046875 136.67765625 48.375 137.3125 C49.21289062 137.92867187 50.05078125 138.54484375 50.9140625 139.1796875 C55.88543757 142.76584971 60.81246091 145.73725042 66.375 148.3125 C66.375 148.9725 66.375 149.6325 66.375 150.3125 C67.19613281 150.55097656 68.01726562 150.78945313 68.86328125 151.03515625 C73.03492764 152.55254042 76.71580564 154.55543428 80.5625 156.75 C81.62887695 157.34264648 81.62887695 157.34264648 82.71679688 157.94726562 C89.12318011 161.56931296 89.12318011 161.56931296 91.375 164.3125 C91.96629956 168.25449704 92.26013189 170.75567228 90.2734375 174.25 C82.08208507 184.4125335 68.74871355 186.79269398 56.375 188.3125 C51.73794194 188.49869581 47.10213418 188.49831717 42.46191406 188.49780273 C40.2764898 188.49997369 38.09158426 188.51812576 35.90625 188.53710938 C8.17334293 188.65015646 -18.84593372 179.57228537 -42.0390625 164.5 C-45.26445765 163.01885178 -46.30750369 163.09986391 -49.625 164.3125 C-52.18665862 165.70352356 -54.61280425 167.122063 -57.0625 168.6875 C-57.76334717 169.13158203 -58.46419434 169.57566406 -59.1862793 170.03320312 C-69.63446548 176.77168829 -79.0844607 184.60454647 -88.18359375 193.0546875 C-90.27188422 194.98593853 -92.39591534 196.8456806 -94.5625 198.6875 C-97.56352905 201.2694942 -100.30667268 204.02634479 -103.04956055 206.87451172 C-109.39237937 213.41883029 -114.34814296 218.27339308 -123.75 218.875 C-127.46629658 218.70400476 -128.691473 218.27187761 -132 216.25 C-139.46902662 207.89180354 -141.00602116 198.99711978 -140.875 188.0625 C-140.86823242 187.23548584 -140.86146484 186.40847168 -140.85449219 185.55639648 C-140.63217848 172.24988719 -137.6109534 160.59931374 -132.625 148.3125 C-133.75550781 148.33570313 -134.88601563 148.35890625 -136.05078125 148.3828125 C-145.69773123 148.51448709 -155.1992025 148.1946192 -164.8125 147.375 C-178.79730163 146.18414314 -192.77242026 145.92118175 -206.80151367 145.74243164 C-208.50830142 145.71374253 -210.21508856 145.68501694 -211.921875 145.65625 C-212.69688858 145.65104843 -213.47190216 145.64584686 -214.270401 145.64048767 C-220.19807015 145.53156905 -225.73358619 145.2524116 -230.0625 140.8125 C-232.1545105 136.12639648 -232.77387183 132.35346822 -231.625 127.3125 C-229.73536791 124.13266594 -227.34369052 121.79682065 -224.625 119.3125 C-224.03460938 118.72855469 -223.44421875 118.14460938 -222.8359375 117.54296875 C-217.09937549 112.13595392 -210.38216074 108.29238981 -203.625 104.3125 C-202.81417969 103.80203125 -202.00335938 103.2915625 -201.16796875 102.765625 C-186.60964832 94.44658475 -165.44217549 87.30346947 -148.625 88.3125 C-149.058125 87.75820313 -149.49125 87.20390625 -149.9375 86.6328125 C-150.7728125 85.54613281 -150.7728125 85.54613281 -151.625 84.4375 C-152.4603125 83.35855469 -152.4603125 83.35855469 -153.3125 82.2578125 C-154.625 80.3125 -154.625 80.3125 -154.625 78.3125 C-171.42975141 78.72723412 -187.966732 80.06555727 -204.625 82.3125 C-205.72038086 82.44664307 -205.72038086 82.44664307 -206.83789062 82.58349609 C-256.27442118 88.75680145 -307.8618155 120.46098372 -338.4375 159.375 C-340.19635181 161.66632786 -341.91918362 163.9814871 -343.625 166.3125 C-344.77742188 167.88257813 -344.77742188 167.88257813 -345.953125 169.484375 C-360.82480982 190.38793198 -372.67198683 213.583064 -379.625 238.3125 C-379.85477539 239.11365234 -380.08455078 239.91480469 -380.32128906 240.74023438 C-387.20786469 265.10811737 -389.98438618 289.26835513 -390 314.5 C-390.00199402 315.34247284 -390.00398804 316.18494568 -390.00604248 317.052948 C-390.00287777 328.82581592 -389.22131857 340.40266651 -387.87854004 352.09640503 C-387.65189147 354.07745215 -387.44062948 356.06024561 -387.23144531 358.04321289 C-385.20968258 376.71438349 -380.65689281 393.61140427 -374.625 411.3125 C-374.09399045 412.92282739 -373.56392157 414.53346555 -373.03515625 416.14453125 C-363.05444958 446.01826683 -347.37658451 472.70092147 -326.625 496.3125 C-325.75875 497.34503906 -325.75875 497.34503906 -324.875 498.3984375 C-321.03837154 502.94484222 -316.87979697 507.15950149 -312.6875 511.375 C-311.82741333 512.24209595 -311.82741333 512.24209595 -310.94995117 513.12670898 C-293.42901699 530.58325528 -272.43245187 543.7036303 -250.6875 555.25 C-249.42812622 555.92313232 -249.42812622 555.92313232 -248.14331055 556.60986328 C-242.92188148 559.32761429 -237.66369147 561.49594406 -232.10864258 563.43920898 C-229.1675893 564.47333339 -226.30381336 565.65004521 -223.4375 566.875 C-219.52798265 568.5232284 -215.61916207 570.12560896 -211.6328125 571.578125 C-210.22560598 572.0928231 -208.82497031 572.62567888 -207.4296875 573.171875 C-201.07139839 575.60357177 -194.5995548 577.55429163 -188.0625 579.4375 C-186.75116089 579.81805542 -186.75116089 579.81805542 -185.41333008 580.20629883 C-180.28904563 581.66015664 -175.17603457 582.84747543 -169.94506836 583.84765625 C-166.65379731 584.50708802 -163.42901041 585.38117751 -160.1875 586.25 C-153.132027 588.08819762 -146.04406969 589.3111535 -138.83227539 590.36108398 C-135.65088596 590.82465309 -132.6825493 591.2933169 -129.625 592.3125 C-128.08222886 592.51363992 -126.53420187 592.67598359 -124.984375 592.8125 C-124.07816406 592.895 -123.17195313 592.9775 -122.23828125 593.0625 C-121.29339844 593.145 -120.34851563 593.2275 -119.375 593.3125 C-117.5154818 593.47756126 -115.65610256 593.64419652 -113.796875 593.8125 C-112.9728418 593.8846875 -112.14880859 593.956875 -111.29980469 594.03125 C-109.3437048 594.23692972 -107.39437903 594.51012522 -105.45237732 594.82199097 C-101.51567861 595.32651041 -97.67167975 595.45333108 -93.7121582 595.44189453 C-92.95322266 595.44364685 -92.19428711 595.44539917 -91.41235352 595.44720459 C-88.91680573 595.4515841 -86.4213297 595.44869502 -83.92578125 595.4453125 C-82.16765835 595.44598756 -80.40953555 595.44695927 -78.65141296 595.44821167 C-74.9638073 595.44968415 -71.27622588 595.4475519 -67.58862305 595.44287109 C-62.92179795 595.43722875 -58.25503107 595.4404204 -53.5882082 595.44644356 C-49.9510405 595.45010842 -46.31388591 595.44888293 -42.67671776 595.44631577 C-40.95998312 595.44565987 -39.24324719 595.44642668 -37.52651405 595.44879532 C-20.43584381 595.46717408 -3.42207884 594.85230918 13.5625 592.875 C15.24569336 592.69227539 15.24569336 592.69227539 16.96289062 592.50585938 C22.47365385 591.88206037 27.81211177 591.071161 33.20483398 589.78344727 C36.35318341 589.10022463 39.52281954 588.72298552 42.71777344 588.32470703 C53.6340505 586.95863171 63.87281307 584.5247942 74.375 581.3125 C76.53654972 580.66539638 78.69941212 580.02294114 80.86303711 579.3828125 C82.28145293 578.96278122 83.69894871 578.53962975 85.11547852 578.11328125 C88.55997909 577.0878223 91.99686328 576.14340936 95.50390625 575.35546875 C103.64580474 573.52461341 110.55678836 571.10159817 117.8984375 567.09375 C120.63411545 565.69209928 123.25971079 564.53286061 126.11328125 563.421875 C131.62636648 561.26313681 136.9005652 558.72180212 142.1875 556.0625 C143.15236328 555.57797363 144.11722656 555.09344727 145.11132812 554.59423828 C152.46656889 550.85857621 159.45885916 546.81519586 166.375 542.3125 C167.51951524 541.59684604 168.66540224 540.88338218 169.8125 540.171875 C186.82129618 529.55541105 202.42085259 516.79702125 216.265625 502.296875 C218.375 500.3125 218.375 500.3125 220.375 500.3125 C220.63539063 499.56484375 220.89578125 498.8171875 221.1640625 498.046875 C222.40663317 495.24107027 223.61980034 493.73764058 225.75 491.5625 C235.38910871 481.04710868 243.20774233 468.60322703 250.375 456.3125 C250.77460937 455.63606445 251.17421875 454.95962891 251.5859375 454.26269531 C257.6620026 443.92878157 262.56854111 433.68043804 266.375 422.3125 C266.7565625 421.17296875 267.138125 420.0334375 267.53125 418.859375 C267.8096875 418.01890625 268.088125 417.1784375 268.375 416.3125 C269.035 416.3125 269.695 416.3125 270.375 416.3125 C270.58189453 414.99765625 270.58189453 414.99765625 270.79296875 413.65625 C272.10144388 406.13910427 274.21419387 398.81031346 276.375 391.5 C278.20788019 385.21084241 279.50688438 378.93154341 280.6640625 372.4921875 C281.375 369.3125 281.375 369.3125 282.38084412 367.41000366 C283.50561739 365.03691902 283.76820117 363.18421371 283.99243164 360.57275391 C284.07416122 359.63515228 284.15589081 358.69755066 284.24009705 357.73153687 C284.31684158 356.71927032 284.39358612 355.70700378 284.47265625 354.6640625 C284.55612808 353.60176422 284.63959991 352.53946594 284.7256012 351.44497681 C285.59710904 339.53074902 285.81393455 327.63002944 285.8125 315.6875 C285.81389984 314.55795898 285.81529968 313.42841797 285.81674194 312.26464844 C285.79828977 294.07305051 284.5707384 277.04771885 280.375 259.3125 C280.15618164 258.33506836 279.93736328 257.35763672 279.71191406 256.35058594 C277.49910889 246.49231996 274.85919907 236.80488487 271.375 227.3125 C271.15827637 226.71622803 270.94155273 226.11995605 270.71826172 225.50561523 C263.63711505 206.26685115 254.53204015 187.84013399 242.375 171.3125 C241.66730469 170.31863281 240.95960938 169.32476562 240.23046875 168.30078125 C234.91885082 160.97936194 229.06814006 154.3395961 222.81982422 147.8203125 C221.49761114 146.44045647 220.18761077 145.04892461 218.87890625 143.65625 C213.68523268 138.26642784 208.14306398 133.58712563 202.19580078 129.06591797 C193.77371648 122.65786234 193.77371648 122.65786234 192.73828125 119.1640625 C192.66022427 115.74156435 192.74536736 113.29019044 194.6328125 110.359375 C197.02560426 107.9777125 199.12479173 106.5658255 202.45703125 105.890625 C213.02698353 106.11916451 221.62670644 116.2399382 228.828125 122.953125 C230.94452736 124.9137186 233.09891492 126.77729675 235.3125 128.625 C251.3647692 142.72364617 264.0472015 160.72438594 274.375 179.3125 C274.74431641 179.96895508 275.11363281 180.62541016 275.49414062 181.30175781 C312.82341903 248.04294637 317.52989846 329.95663537 297.54296875 402.90234375 C294.48829731 413.64010265 290.70220624 424.02682149 286.375 434.3125 C285.81594971 435.641604 285.81594971 435.641604 285.24560547 436.99755859 C273.28385596 465.07105234 257.77270243 490.36050411 236.84765625 512.65234375 C234.84578103 514.80601994 232.94312291 516.99230983 231.0625 519.25 C221.79481611 529.88577056 210.6635035 538.92128082 199.375 547.3125 C198.72692383 547.7957373 198.07884766 548.27897461 197.41113281 548.77685547 C186.53562753 556.82221602 175.21318738 563.7815041 163.375 570.3125 C162.61493652 570.73772949 161.85487305 571.16295898 161.07177734 571.60107422 C147.94306759 578.91793174 134.35766162 584.82447158 120.375 590.3125 C119.45315918 590.67617676 118.53131836 591.03985352 117.58154297 591.41455078 C89.78199213 602.26694254 60.70771304 608.49847648 31.25170898 612.87182617 C28.4084263 613.30737953 25.58043792 613.80069623 22.75 614.3125 C17.6194059 615.16872267 12.48178807 615.81065334 7.3125 616.375 C6.61237793 616.45427734 5.91225586 616.53355469 5.19091797 616.61523438 C-14.1599392 618.63563534 -33.63027117 618.55884887 -53.0625 618.5625 C-53.78260128 618.56279457 -54.50270256 618.56308914 -55.24462509 618.56339264 C-95.06119279 618.56601844 -134.05790434 615.61681905 -172.8828125 606.21484375 C-175.34644839 605.62079376 -177.82098298 605.07000239 -180.3046875 604.56640625 C-190.58345032 602.40517745 -200.4826804 599.18677226 -210.4375 595.875 C-211.14705841 595.63997772 -211.85661682 595.40495544 -212.587677 595.16281128 C-221.4274472 592.2238007 -230.08404899 589.04893444 -238.625 585.3125 C-239.56174561 584.90700928 -240.49849121 584.50151855 -241.46362305 584.08374023 C-270.76349571 571.27306048 -297.79425842 555.06761746 -321.38671875 533.3671875 C-323.49539527 531.43147397 -325.64286328 529.55430024 -327.8125 527.6875 C-334.28218811 522.03626641 -340.11010243 515.89277551 -345.625 509.3125 C-346.04910156 508.80750977 -346.47320312 508.30251953 -346.91015625 507.78222656 C-366.81073234 483.9320236 -383.94595981 455.8920606 -393.625 426.25 C-394.60791465 423.22058477 -394.60791465 423.22058477 -396.07421875 420.0390625 C-397.9607405 415.70775048 -399.20535634 411.24158323 -400.4375 406.6875 C-400.81890137 405.28177734 -400.81890137 405.28177734 -401.20800781 403.84765625 C-403.35501563 395.72327328 -405.16357616 387.53859871 -406.875 379.3125 C-407.12096924 378.13349121 -407.36693848 376.95448242 -407.62036133 375.73974609 C-411.58464655 356.19318072 -412.86013906 336.88545238 -412.875 317 C-412.87567474 316.17512085 -412.87634949 315.3502417 -412.87704468 314.50036621 C-412.8316441 279.23387567 -407.36952279 242.98054364 -393.625 210.3125 C-393.32086182 209.58788574 -393.01672363 208.86327148 -392.70336914 208.11669922 C-380.26083121 178.88329797 -363.67437541 153.21156232 -341.625 130.3125 C-341.12323242 129.78881836 -340.62146484 129.26513672 -340.10449219 128.72558594 C-333.34993049 121.71039807 -326.36110484 115.25472546 -318.625 109.3125 C-318.06441895 108.8808252 -317.50383789 108.44915039 -316.92626953 108.00439453 C-296.52645262 92.3927987 -273.84809328 79.88970602 -249.625 71.3125 C-247.78615234 70.63960937 -247.78615234 70.63960937 -245.91015625 69.953125 C-220.92752947 61.16444848 -195.02897379 57.03391177 -168.625 57.3125 C-169.74931913 54.89551449 -170.87442975 52.4789028 -172 50.0625 C-172.31710937 49.38058594 -172.63421875 48.69867188 -172.9609375 47.99609375 C-173.2703125 47.33222656 -173.5796875 46.66835937 -173.8984375 45.984375 C-174.34751465 45.01794067 -174.34751465 45.01794067 -174.80566406 44.03198242 C-175.43945831 42.70188324 -176.12055464 41.39426641 -176.8203125 40.09765625 C-178.4055605 36.5808682 -178.35599123 33.05567922 -177.625 29.3125 C-175.18189402 25.108454 -172.13841911 22.16482807 -167.625 20.3125 C-156.09703059 19.14016413 -143.3323049 23.212211 -132.625 27.3125 C-131.54476563 27.72113281 -130.46453125 28.12976563 -129.3515625 28.55078125 C-110.30251483 35.95874423 -90.88055603 44.76561211 -74.625 57.3125 C-74.53347656 56.64089844 -74.44195312 55.96929687 -74.34765625 55.27734375 C-73.43447802 51.53084494 -71.81320806 48.28416521 -70.0625 44.875 C-69.70389893 44.17197754 -69.34529785 43.46895508 -68.97583008 42.74462891 C-67.86988551 40.59465138 -66.75019017 38.45245982 -65.625 36.3125 C-65.30080078 35.69068848 -64.97660156 35.06887695 -64.64257812 34.42822266 C-59.59772322 24.8498157 -53.54370609 16.59019254 -46.625 8.3125 C-45.83738281 7.34699219 -45.04976562 6.38148438 -44.23828125 5.38671875 C-30.56227997 -10.72375397 -17.56024829 -7.93648935 0 0 Z " fill="#040302" transform="translate(563.625,202.6875)"/>
<path d="M0 0 C0.8743721 -0.00686325 1.7487442 -0.0137265 2.64961243 -0.02079773 C5.53008472 -0.03903765 8.41000982 -0.0352266 11.29052734 -0.02954102 C13.31529921 -0.03410947 15.34006954 -0.039417 17.36483765 -0.04542542 C21.61324343 -0.05435511 25.86146131 -0.05194118 30.10986328 -0.04199219 C35.49426245 -0.03059887 40.87799631 -0.05056543 46.26230812 -0.07990932 C50.45114119 -0.09848198 54.63982173 -0.09793592 58.82868576 -0.0922718 C60.80975644 -0.09212063 62.79083886 -0.09799214 64.77186966 -0.11056328 C82.02112583 -0.20447696 99.62818759 1.22454409 115.62646484 8.21655273 C116.86178955 8.73584351 116.86178955 8.73584351 118.12207031 9.265625 C135.79686525 16.89911245 150.46693986 29.42065803 157.90380859 47.52124023 C158.26603516 48.47256836 158.62826172 49.42389648 159.00146484 50.40405273 C159.39462891 51.33475586 159.78779297 52.26545898 160.19287109 53.22436523 C167.18628799 72.66947564 164.79106791 98.71614206 156.31396484 117.27905273 C153.02361994 124.04980406 149.14524688 129.87474068 144.00146484 135.40405273 C143.09847656 136.44239258 143.09847656 136.44239258 142.17724609 137.50170898 C127.09107567 153.91622146 102.64373171 161.52461346 81.00146484 163.40405273 C77.1673022 163.53163622 73.33738928 163.52092084 69.50146484 163.50170898 C67.88703491 163.49958656 67.88703491 163.49958656 66.23999023 163.49742126 C62.82711929 163.49185653 59.41431572 163.47931061 56.00146484 163.46655273 C53.67724705 163.46153318 51.35302821 163.45697107 49.02880859 163.45288086 C43.35300464 163.44189867 37.67723956 163.42519593 32.00146484 163.40405273 C32.01811943 164.32914139 32.01811943 164.32914139 32.03511047 165.2729187 C32.14629169 171.7298932 32.22137455 178.18659291 32.27612305 184.64428711 C32.30116569 187.04967303 32.33520985 189.45498363 32.37866211 191.86010742 C32.43976365 195.3306748 32.46777847 198.80023045 32.48974609 202.27124023 C32.51555252 203.33519012 32.54135895 204.39914001 32.56794739 205.49533081 C32.57099603 213.73178532 30.67778483 220.35158401 25.05513 226.54953003 C20.78107292 230.65377948 16.6413008 232.71210195 11.00146484 234.40405273 C10.39173828 234.58709961 9.78201172 234.77014648 9.15380859 234.95874023 C-0.60519447 236.97784432 -9.54055435 235.29357198 -18.18603516 230.71655273 C-21.81981349 227.72877944 -24.44618606 224.34020556 -26.99853516 220.40405273 C-27.34962876 219.86572658 -27.70072237 219.32740042 -28.06245518 218.77276134 C-29.40100404 215.38562319 -29.28426389 212.09291638 -29.27268982 208.50471497 C-29.2779265 207.70318754 -29.28316318 206.90166012 -29.28855854 206.07584399 C-29.30357471 203.38677537 -29.30426405 200.69789676 -29.30493164 198.00878906 C-29.31255217 196.08193642 -29.32097949 194.15508683 -29.33015442 192.22824097 C-29.35212001 186.99043143 -29.36090139 181.75268028 -29.36598086 176.51482987 C-29.36962278 173.24159123 -29.37586206 169.96836792 -29.38298225 166.69513512 C-29.40748638 155.27314964 -29.4205302 143.85120963 -29.42407227 132.42919922 C-29.42770564 121.78755967 -29.45758446 111.14620889 -29.49947685 100.50465757 C-29.534191 91.36564834 -29.54962092 82.22673472 -29.5503183 73.08766001 C-29.55111089 67.63063898 -29.55984123 62.17391184 -29.58831596 56.716959 C-29.61451481 51.58111666 -29.61669145 46.44581144 -29.60066032 41.30993271 C-29.59884714 39.42861827 -29.6055247 37.54727283 -29.62147903 35.66602516 C-29.70836341 24.75251484 -29.40639118 16.66019989 -22.00634766 8.09936523 C-21.38501953 7.58116211 -20.76369141 7.06295898 -20.12353516 6.52905273 C-19.50736328 5.99538086 -18.89119141 5.46170898 -18.25634766 4.91186523 C-12.1827141 0.85577085 -7.14327927 -0.039628 0 0 Z " fill="#6CB246" transform="translate(567.99853515625,469.595947265625)"/>
<path d="M0 0 C1.30792007 -0.00708481 2.61584015 -0.01416962 3.96339417 -0.02146912 C5.40599095 -0.01917545 6.8485874 -0.01666577 8.29118347 -0.01396179 C9.81586964 -0.01831075 11.34055363 -0.02349452 12.86523438 -0.02944946 C17.00173182 -0.04283289 21.13813785 -0.04341872 25.27465272 -0.04088616 C28.73124859 -0.03981572 32.18782602 -0.04470185 35.64441794 -0.04949158 C43.80240331 -0.06058512 51.96034264 -0.06102545 60.11833191 -0.05497742 C68.52472541 -0.04894084 76.93095141 -0.06124092 85.33731633 -0.08254749 C92.56212167 -0.10018369 99.78687379 -0.10616155 107.01169986 -0.10290974 C111.3233859 -0.10109951 115.63495254 -0.10370685 119.94661903 -0.11762428 C124.00389319 -0.13023043 128.0609071 -0.12823231 132.11817741 -0.11521339 C133.60321263 -0.11285388 135.08826631 -0.11555982 136.57328033 -0.12383652 C152.41788711 -0.20574403 152.41788711 -0.20574403 159.70207214 4.73335266 C165.42152153 10.49527321 168.56589325 16.97711138 169.15519714 25.13569641 C168.48627814 37.13907632 159.44728834 46.55623645 152.30363464 55.49507141 C148.62882164 60.09942921 145.12544908 64.81362538 141.65519714 69.57319641 C135.98008553 77.33297745 130.18999221 84.99791477 124.35099792 92.63496399 C120.38427987 97.82416902 116.43955356 103.02815262 112.53019714 108.26069641 C107.94604976 114.39642551 103.30703544 120.48866267 98.65519714 126.57319641 C92.97048017 134.01285442 87.37295945 141.50923653 81.84391785 149.06513977 C76.58818797 156.22876645 71.19813724 163.28722314 65.77043152 170.32124329 C65.13041199 171.15462219 64.49039246 171.9880011 63.83097839 172.84663391 C63.26548279 173.57930481 62.69998718 174.31197571 62.11735535 175.06684875 C60.43722802 177.38920287 58.99127213 179.79614399 57.53019714 182.26069641 C58.7209938 182.25181396 59.91179047 182.24293152 61.13867188 182.23377991 C72.39304265 182.15248614 83.64735338 182.09263136 94.90195179 182.05344772 C100.68725694 182.03262538 106.47232394 182.00440563 112.25749207 181.9589386 C117.84664927 181.91528989 123.43557823 181.89151909 129.02489281 181.88118744 C131.15101905 181.87383015 133.27713364 181.85946349 135.403162 181.83777618 C159.4247753 181.60261118 159.4247753 181.60261118 168.96769714 188.51069641 C174.84384924 194.81681086 176.90842117 201.85027272 176.80754089 210.34663391 C176.10103464 217.76992497 172.09682137 224.378805 166.53019714 229.26069641 C160.79830484 232.83905043 155.74401171 234.38317987 148.97268677 234.41459656 C147.96874613 234.42116994 147.96874613 234.42116994 146.94452387 234.42787611 C144.69695572 234.44125346 142.44942678 234.44744064 140.201828 234.4535675 C138.59201379 234.46146952 136.98220134 234.46973853 135.37239075 234.47834778 C130.07995799 234.50456362 124.78751736 234.51987828 119.49504089 234.53413391 C117.67166705 234.53949439 115.84829325 234.54487191 114.02491951 234.55026627 C106.43726633 234.57189728 98.84961526 234.59063192 91.26193905 234.60188866 C80.39776336 234.61811321 69.53394616 234.65125208 58.6699056 234.7082895 C51.02643997 234.74704555 43.38306997 234.76652824 35.73950869 234.77180922 C31.17721918 234.77545587 26.61531205 234.78740323 22.0531292 234.81991196 C17.75612071 234.85009129 13.45972398 234.85626956 9.16263199 234.8445282 C7.59133811 234.84430826 6.02001504 234.85254676 4.44882011 234.87018204 C-5.81990739 234.97910084 -13.83987952 234.0244777 -21.90730286 227.19819641 C-22.42292786 226.55882141 -22.93855286 225.91944641 -23.46980286 225.26069641 C-24.27417786 224.30163391 -24.27417786 224.30163391 -25.09480286 223.32319641 C-29.64012575 216.50521208 -29.58428226 208.16761313 -28.46980286 200.26069641 C-27.12025558 196.34425514 -25.04143057 193.48400366 -22.46980286 190.26069641 C-21.71570129 189.27714172 -20.96159973 188.29358704 -20.18464661 187.28022766 C-18.38869822 184.95646903 -16.56518344 182.65711965 -14.72761536 180.36616516 C-10.88991998 175.56246225 -7.18442639 170.65976868 -3.46980286 165.76069641 C1.47512908 159.24933951 6.4537235 152.77066458 11.52507019 146.3573761 C15.56857276 141.23535495 19.5267451 136.04999541 23.4818573 130.85957336 C27.48475861 125.61217652 31.53069608 120.39992778 35.59269714 115.19819641 C41.51663466 107.60373953 47.3248215 99.92934258 53.08000183 92.20649719 C55.47567237 88.99210423 57.87690218 85.78189161 60.28019714 82.57319641 C60.7570697 81.93607727 61.23394226 81.29895813 61.7252655 80.64253235 C64.73330421 76.63181407 67.76374741 72.63888748 70.80754089 68.65522766 C71.53811707 67.69898499 72.26869324 66.74274231 73.02140808 65.75752258 C74.46710252 63.86715979 75.91432845 61.9779671 77.36320496 60.09004211 C78.02030457 59.23112366 78.67740417 58.3722052 79.35441589 57.48725891 C79.94311462 56.71978333 80.53181335 55.95230774 81.13835144 55.16157532 C82.57476266 53.31121291 82.57476266 53.31121291 83.53019714 51.26069641 C81.89433907 51.28068192 81.89433907 51.28068192 80.22543335 51.30107117 C69.91297754 51.42306763 59.60066947 51.51281952 49.28765392 51.57156944 C43.9864395 51.60278982 38.68581085 51.64509204 33.38493347 51.71333313 C28.26257947 51.7788581 23.14078641 51.81447224 18.01804543 51.82995987 C16.07049551 51.84098699 14.1229739 51.86252001 12.1756649 51.89507675 C-8.29812333 52.22354542 -8.29812333 52.22354542 -16.46980286 45.26069641 C-22.66619382 38.0233271 -25.08813585 30.86912286 -24.91120911 21.36225891 C-23.83534851 13.80267203 -19.01968266 8.15316321 -13.27839661 3.41694641 C-8.9098571 0.62410042 -5.14278285 0.00929847 0 0 Z " fill="#6DB347" transform="translate(334.4698028564453,469.7393035888672)"/>
<path d="M0 0 C6.87947032 2.1802629 13.45055898 4.80254035 20.0625 7.6875 C21.02349609 8.10322266 21.98449219 8.51894531 22.97460938 8.94726562 C25.31787486 9.96151487 27.65960887 10.97914002 30 12 C28.30660079 15.59989397 26.26641973 17.99477187 23.5 20.875 C6.09653589 39.56596529 -5.85768071 62.95873092 -14 87 C-14.4125 88.093125 -14.825 89.18625 -15.25 90.3125 C-16.33008138 94.1827916 -16.52843286 97.41470142 -15.25 101.25 C-13.66500737 103.46898968 -12.58971247 104.13676251 -10 105 C-6.29740322 105.48294741 -4.39133394 105.19463714 -1.03125 103.5234375 C2.94137 100.21633374 4.00868991 97.05185329 5.625 92.25 C6.45060509 89.91338183 7.28688488 87.5839084 8.16015625 85.26464844 C8.70513719 83.795101 9.2057133 82.30802725 9.65234375 80.80566406 C10.97163078 77.19115588 12.15409619 75.45827098 15.59033203 73.59667969 C18.94311683 72.31055165 22.30172497 71.25204489 25.75 70.25 C26.96905029 69.87222412 28.18810059 69.49444824 29.4440918 69.10522461 C32.95284869 68.03193313 36.47127322 67.00543249 40 66 C40.85996582 65.7520166 41.71993164 65.5040332 42.60595703 65.24853516 C47.03973816 63.99208792 51.48348069 62.9268594 56 62 C57.05445313 61.77699219 58.10890625 61.55398438 59.1953125 61.32421875 C73.41743662 58.80536062 90.80622582 58.03734253 105 61 C105.66 61.66 106.32 62.32 107 63 C106.16082031 63.36609375 105.32164062 63.7321875 104.45703125 64.109375 C85.86555779 72.47852704 68.80071405 83.23364687 51.86083984 94.50097656 C51.25914978 94.90060608 50.65745972 95.3002356 50.03753662 95.7119751 C48.3977528 96.80270294 46.76055042 97.89730887 45.12353516 98.9921875 C42.82634803 100.4688224 40.55489694 101.81753236 38.16943359 103.1328125 C34.95308339 104.64080185 34.95308339 104.64080185 34 107 C33.42180309 110.2379027 33.20093535 111.88676109 34 115 C36.60902365 118.73054965 39.7626928 121.81399719 43 125 C43.57621094 125.64582031 44.15242187 126.29164063 44.74609375 126.95703125 C55.08008155 138.293392 69.07231998 146.84226366 83 153 C83 153.66 83 154.32 83 155 C62.26071288 160.88302164 35.30466393 154.21285125 16 146 C15.30890137 145.71253906 14.61780273 145.42507813 13.90576172 145.12890625 C4.4737446 141.18850993 -4.50192215 136.81113191 -13.27734375 131.56640625 C-17.80340306 128.96246108 -21.85925004 128.4406864 -27 129 C-29.69049856 129.97006311 -31.94522443 130.92369758 -34.4375 132.25 C-35.11707764 132.6013501 -35.79665527 132.9527002 -36.49682617 133.31469727 C-51.99959499 141.60563969 -65.71171519 153.09402489 -78.65625 164.87109375 C-84.33571149 170.02993794 -90.16634609 175.01708729 -96 180 C-97.2122106 164.12902042 -93.63996512 149.21556409 -86.125 135.1875 C-83.37966446 130.06206203 -81.80078304 126.77804534 -83 121 C-86.54741963 117.00356256 -91.45689967 117.24943373 -96.44921875 116.8671875 C-97.39904129 116.78520111 -98.34886383 116.70321472 -99.32746887 116.6187439 C-102.44643805 116.35559394 -105.56660344 116.11412777 -108.6875 115.875 C-109.74791504 115.78939819 -110.80833008 115.70379639 -111.90087891 115.61560059 C-133.25219145 113.89685689 -154.5857249 113.20202146 -176 113 C-172.338184 109.12899485 -168.94286407 107.2377024 -164.125 105.125 C-163.34342529 104.78130371 -162.56185059 104.43760742 -161.7565918 104.08349609 C-142.6330836 95.99256448 -123.0271587 92.93660792 -102.41015625 92.4284668 C-101.5078125 92.40051025 -100.60546875 92.37255371 -99.67578125 92.34375 C-98.87052002 92.32505859 -98.06525879 92.30636719 -97.2355957 92.28710938 C-94.72336284 91.9644725 -93.1339345 91.35762237 -91 90 C-88.92695456 87.25892202 -88.92695456 87.25892202 -88.44140625 84.7265625 C-89.34695439 80.3064744 -92.60900084 78.22867534 -95.9375 75.375 C-102.33758976 69.65097606 -107.86112633 63.90799412 -113 57 C-113.5878125 56.21625 -114.175625 55.4325 -114.78125 54.625 C-118.4237694 49.59170047 -121.73680673 44.34684942 -125 39.0625 C-125.61584961 38.08555176 -125.61584961 38.08555176 -126.24414062 37.08886719 C-127.24385911 35.4390727 -128.13145872 33.72246769 -129 32 C-128.505 30.515 -128.505 30.515 -128 29 C-102.98353277 36.72723036 -79.63365871 49.38266303 -58 64 C-58.30996259 66.72947644 -58.62287975 69.45855985 -58.9375 72.1875 C-59.02451172 72.95642578 -59.11152344 73.72535156 -59.20117188 74.51757812 C-59.56083724 77.62135701 -59.93434259 80.67357558 -60.55078125 83.73828125 C-61.58777261 88.95930732 -61.8198371 94.17399918 -59.625 99.0625 C-57.79604895 101.24317241 -56.80495733 101.87506556 -54.01171875 102.30859375 C-53.24472656 102.35113281 -52.47773438 102.39367187 -51.6875 102.4375 C-50.92824219 102.49808594 -50.16898437 102.55867188 -49.38671875 102.62109375 C-46.35208325 101.83139319 -44.88829378 100.27466901 -43.01538086 97.80786133 C-41.29578318 94.7461588 -41.12630605 91.55234325 -40.9375 88.125 C-37.98725401 55.2066529 -22.68466401 23.7805415 0 0 Z " fill="#67AE41" transform="translate(540,216)"/>
<path d="M0 0 C0 0.66 0 1.32 0 2 C0.5775 2.226875 1.155 2.45375 1.75 2.6875 C4.82441864 4.48091087 6.189883 5.89694228 8 9 C8.79592985 13.76761979 8.81179378 17.48816587 6.49609375 21.80078125 C3.40008427 26.11087168 -0.61360958 29.60164156 -4.4375 33.25 C-17.58747964 46.12334695 -27.62131314 60.65980408 -36 77 C-36.82757813 78.61068359 -36.82757813 78.61068359 -37.671875 80.25390625 C-44.19314189 93.68300997 -48.95604167 108.23123396 -50.8125 123.0625 C-51.87314912 129.55897586 -53.87719417 134.72019269 -59.30078125 138.6796875 C-64.06710451 141.01111624 -68.83127289 140.84890352 -74 140 C-78.72691234 137.5165084 -81.60658014 133.70985839 -84 129 C-86.84447507 108.75223119 -78.91928833 82.95593571 -70 65 C-69.67193359 64.32372559 -69.34386719 63.64745117 -69.00585938 62.95068359 C-59.23966723 42.96077628 -46.70106335 23.85943023 -29 10 C-27.66152864 8.67182457 -26.32805287 7.33859297 -25 6 C-17.35558639 -0.81349909 -10.02002604 -3.34000868 0 0 Z " fill="#FCE9E5" transform="translate(301,361)"/>
<path d="M0 0 C6.8475 -0.0825 13.695 -0.165 20.75 -0.25 C23.95348145 -0.30462402 23.95348145 -0.30462402 27.22167969 -0.36035156 C40.79103561 -0.49567952 53.38632614 0.51729139 64 10 C71.00235271 18.58131459 71.89276995 28.1944097 71.23828125 38.890625 C70.38088788 46.48066464 66.7681937 53.46747952 61.078125 58.5390625 C51.60008023 65.20219924 40.95902712 67.34144744 29.58984375 67.1953125 C28.83223755 67.19329834 28.07463135 67.19128418 27.29406738 67.18920898 C24.50848187 67.17887493 21.72298377 67.15095421 18.9375 67.125 C12.688125 67.08375 6.43875 67.0425 0 67 C0 44.89 0 22.78 0 0 Z " fill="#D80F05" transform="translate(600,518)"/>
<path d="M0 0 C0.99 0.99 0.99 0.99 2 2 C1.16082031 2.36609375 0.32164062 2.7321875 -0.54296875 3.109375 C-19.13444221 11.47852704 -36.19928595 22.23364687 -53.13916016 33.50097656 C-53.74085022 33.90060608 -54.34254028 34.3002356 -54.96246338 34.7119751 C-56.6022472 35.80270294 -58.23944958 36.89730887 -59.87646484 37.9921875 C-62.17142859 39.46739321 -64.43901408 40.81207332 -66.82299805 42.12402344 C-70.06150129 43.6600396 -70.06150129 43.6600396 -71.12109375 46.140625 C-71.22550781 46.83671875 -71.32992187 47.5328125 -71.4375 48.25 C-71.623125 49.4875 -71.80875 50.725 -72 52 C-72.33 50.68 -72.66 49.36 -73 48 C-74.05997192 47.80966187 -74.05997192 47.80966187 -75.14135742 47.61547852 C-78.0978994 46.97892182 -80.87278033 46.11772641 -83.73828125 45.15234375 C-84.80498047 44.79462891 -85.87167969 44.43691406 -86.97070312 44.06835938 C-88.07349609 43.69517578 -89.17628906 43.32199219 -90.3125 42.9375 C-91.43462891 42.56044922 -92.55675781 42.18339844 -93.71289062 41.79492188 C-96.47618351 40.86598512 -99.23850178 39.93425558 -102 39 C-100.44243132 33.55018876 -98.86873062 28.26183208 -96.4375 23.125 C-96.02371094 22.24070312 -95.60992188 21.35640625 -95.18359375 20.4453125 C-94.79300781 19.63835937 -94.40242187 18.83140625 -94 18 C-93.75983154 17.33532715 -93.51966309 16.6706543 -93.2722168 15.98583984 C-91.46233052 13.16073622 -89.62304126 12.80744594 -86.4609375 11.78125 C-85.33067139 11.40814697 -84.20040527 11.03504395 -83.03588867 10.65063477 C-81.22374878 10.08107056 -81.22374878 10.08107056 -79.375 9.5 C-78.14692627 9.10417725 -76.91885254 8.70835449 -75.65356445 8.30053711 C-66.84168275 5.4948823 -58.06301312 2.85987004 -49 1 C-47.41832031 0.66548828 -47.41832031 0.66548828 -45.8046875 0.32421875 C-31.58256338 -2.19463938 -14.19377418 -2.96265747 0 0 Z " fill="#11811F" transform="translate(645,277)"/>
<path d="M0 0 C3.96 1.65 7.92 3.3 12 5 C10.09924173 8.80151653 8.40254462 10.8530469 5.5 13.875 C-11.90346411 32.56596529 -23.85768071 55.95873092 -32 80 C-32.4125 81.093125 -32.825 82.18625 -33.25 83.3125 C-34.67628092 88.42333996 -34.24678928 92.22557279 -32 97 C-36.71791502 98.57263834 -40.41548776 98.77539961 -44.9375 96.5625 C-47.33708214 93.58120098 -47.64770307 91.65469933 -47.41796875 87.8671875 C-42.95333729 57.24065023 -25.98363187 29.91333098 -6 7 C-4.76950656 5.56363555 -3.54004197 4.12638764 -2.3125 2.6875 C-1.549375 1.800625 -0.78625 0.91375 0 0 Z " fill="#138420" transform="translate(558,223)"/>
<path d="M0 0 C8.62103338 -0.35187891 17.18843671 0.92462344 25.65452576 2.49119568 C34.88446135 4.11519765 43.91183505 4.27596673 53.2421875 4.23046875 C54.89812178 4.22927065 56.55405676 4.22882511 58.20999146 4.2290802 C61.67438043 4.22752474 65.13866474 4.21932265 68.60302734 4.20581055 C72.94232934 4.18905997 77.28151543 4.18507306 81.62084579 4.18563652 C102.76571232 4.18489687 123.87160547 3.84956678 145 3 C145 3.33 145 3.66 145 4 C138.87868288 4.72785285 132.79507604 5.25663494 126.63842773 5.55200195 C125.34091033 5.61506137 125.34091033 5.61506137 124.01718044 5.67939472 C114.93968837 6.0912827 105.87058587 6.16393618 96.78515625 6.16796875 C95.02884395 6.17119738 93.27253189 6.17456252 91.51622009 6.17805481 C87.87693661 6.18396862 84.23767661 6.18590238 80.59838867 6.18530273 C75.97044014 6.18520048 71.34264283 6.19895242 66.71473026 6.21607494 C63.10360538 6.22725845 59.49251668 6.22922015 55.88137627 6.22869301 C54.1755972 6.22985971 52.46981679 6.23420623 50.76405525 6.24202538 C41.88980393 6.27896783 33.388906 6.0505501 24.62129211 4.46296692 C19.94011657 3.63618786 15.25186707 3.54867676 10.5078125 3.34375 C6.74302741 2.97481783 3.59505058 2.14011834 0 1 C0 0.67 0 0.34 0 0 Z " fill="#A70706" transform="translate(427,793)"/>
<path d="M0 0 C-1.51181102 3.77952756 -1.51181102 3.77952756 -3.9375 4.875 C-6.96000056 6.52363667 -7.66261741 8.92402005 -9 12 C-9.99 12 -10.98 12 -12 12 C-13.11841368 14.08770553 -13.9708176 15.85408801 -14.4375 18.1875 C-14.623125 18.785625 -14.80875 19.38375 -15 20 C-15.99 20.33 -16.98 20.66 -18 21 C-19.12781711 22.76234328 -19.12781711 22.76234328 -20 24.875 C-21.32494964 27.86717793 -22.65451786 29.73561166 -25 32 C-26.05226728 33.97300116 -27.04788888 35.97676387 -28 38 C-29 40 -30 42 -31 44 C-31.66 44 -32.32 44 -33 44 C-32.9175 44.7425 -32.835 45.485 -32.75 46.25 C-33.07105184 49.78157027 -34.35265617 50.76630364 -37 53 C-37.33 52.34 -37.66 51.68 -38 51 C-36.93729189 48.46282223 -35.81585349 46.06676202 -34.5625 43.625 C-34.19560059 42.90401123 -33.82870117 42.18302246 -33.45068359 41.44018555 C-28.1529029 31.22627275 -21.48030512 22.09431007 -14.3984375 13.06640625 C-12.88443862 11.13075622 -11.38719252 9.18177578 -9.9140625 7.21484375 C-9.30304688 6.40144531 -8.69203125 5.58804687 -8.0625 4.75 C-7.53785156 4.04359375 -7.01320312 3.3371875 -6.47265625 2.609375 C-4.53705874 0.49408011 -2.84583153 0 0 0 Z " fill="#DF2F26" transform="translate(236,353)"/>
<path d="M0 0 C0.66 0.33 1.32 0.66 2 1 C-1.75 6 -1.75 6 -2.97241211 7.62915039 C-5.21976026 10.62462164 -7.46518205 13.62150435 -9.70703125 16.62109375 C-15.629387 24.54051101 -21.58440466 32.43507528 -27.5625 40.3125 C-28.25351807 41.22636475 -28.94453613 42.14022949 -29.65649414 43.08178711 C-30.63283813 44.36581421 -30.63283813 44.36581421 -31.62890625 45.67578125 C-32.20713135 46.43802002 -32.78535645 47.20025879 -33.38110352 47.9855957 C-34.82963702 49.78801614 -36.32849392 51.40572313 -38 53 C-37.36567062 49.83548038 -36.26817072 47.48312221 -34.5625 44.75 C-34.13066406 44.04359375 -33.69882812 43.3371875 -33.25390625 42.609375 C-32.84011719 42.07828125 -32.42632812 41.5471875 -32 41 C-31.34 41 -30.68 41 -30 41 C-29.896875 40.4225 -29.79375 39.845 -29.6875 39.25 C-28.89103535 36.64338842 -27.80934723 35.0264689 -26 33 C-25.34 33 -24.68 33 -24 33 C-23.71769531 32.42121094 -23.43539063 31.84242188 -23.14453125 31.24609375 C-20.13310962 25.33630727 -16.75784068 20.64179579 -12 16 C-8.90613952 12.19393897 -6.09185257 8.45138296 -4 4 C-3.34 4 -2.68 4 -2 4 C-1.34 2.68 -0.68 1.36 0 0 Z " fill="#DF251D" transform="translate(408,532)"/>
<path d="M0 0 C0.66 0.33 1.32 0.66 2 1 C1.48050781 1.37511719 0.96101563 1.75023437 0.42578125 2.13671875 C-2.79352754 4.49913204 -5.79540988 6.79540988 -8.625 9.625 C-11.20028345 12.20028345 -13.97787921 13.9852528 -17 16 C-18.93798263 18.77260299 -18.93798263 18.77260299 -20 21 C-20.99 21 -21.98 21 -23 21 C-25.35666976 22.99157649 -25.35666976 22.99157649 -27.6875 25.5 C-28.49574219 26.3353125 -29.30398437 27.170625 -30.13671875 28.03125 C-30.75160156 28.6809375 -31.36648437 29.330625 -32 30 C-32.66 29.67 -33.32 29.34 -34 29 C-23.50673252 18.07615772 -12.70711557 8.30555445 0 0 Z " fill="#D52B22" transform="translate(269,321)"/>
<path d="M0 0 C9.91523973 -0.40470366 19.68522202 1.44925004 29.4375 3.0625 C36.92430211 4.24806592 44.43748863 4.63109701 52 5 C52 5.33 52 5.66 52 6 C42.9036791 6.19608835 34.25351156 6.11856426 25.265625 4.50390625 C20.3668512 3.74799498 15.45604493 3.55749654 10.5078125 3.34375 C6.74302741 2.97481783 3.59505058 2.14011834 0 1 C0 0.67 0 0.34 0 0 Z " fill="#610504" transform="translate(427,793)"/>
<path d="M0 0 C-5.82954548 4.8968182 -12.48132172 6.46159592 -19.7265625 8.16796875 C-24.28921864 9.32768922 -28.72939403 10.82023621 -33.1875 12.328125 C-36.0784735 13.01874645 -37.23908634 12.82029287 -40 12 C-32.57115263 9.42794971 -25.05391368 7.29362051 -17.46484375 5.25 C-11.51197423 3.59594653 -6.10619371 -0.52338803 0 0 Z " fill="#9A0707" transform="translate(678,771)"/>
<path d="M0 0 C-0.804375 0.45375 -1.60875 0.9075 -2.4375 1.375 C-5.08856572 2.74725665 -5.08856572 2.74725665 -6 5 C-1.71 5.33 2.58 5.66 7 6 C7 6.33 7 6.66 7 7 C-0.59 7 -8.18 7 -16 7 C-11.41501976 2.41501976 -11.41501976 2.41501976 -8 0.6875 C-7.34 0.34074219 -6.68 -0.00601562 -6 -0.36328125 C-3.61044569 -1.12401827 -2.33733665 -0.80867674 0 0 Z " fill="#50863A" transform="translate(380,322)"/>
<path d="M0 0 C0.99 0.66 1.98 1.32 3 2 C2.38511719 2.65226563 1.77023437 3.30453125 1.13671875 3.9765625 C0.32847656 4.85054687 -0.47976563 5.72453125 -1.3125 6.625 C-2.11300781 7.48351562 -2.91351563 8.34203125 -3.73828125 9.2265625 C-6.01794872 12.02200966 -7.51580738 14.72420916 -9 18 C-9.99 18 -10.98 18 -12 18 C-10.46906512 13.32800909 -7.89242605 9.97829995 -4.875 6.1875 C-4.40707031 5.59001953 -3.93914062 4.99253906 -3.45703125 4.37695312 C-2.30994435 2.91383208 -1.15568766 1.45633703 0 0 Z " fill="#CA180F" transform="translate(404,634)"/>
<path d="M0 0 C0.66 0.33 1.32 0.66 2 1 C-3.61 6.61 -9.22 12.22 -15 18 C-15.99 17.67 -16.98 17.34 -18 17 C-16.12818806 15.10092866 -14.25269944 13.20573596 -12.375 11.3125 C-11.59189453 10.51682617 -11.59189453 10.51682617 -10.79296875 9.70507812 C-7.35262538 6.24349806 -3.7940764 3.07058135 0 0 Z " fill="#ECC8C3" transform="translate(276,367)"/>
<path d="M0 0 C0.66 0.33 1.32 0.66 2 1 C1.34773438 1.3403125 0.69546875 1.680625 0.0234375 2.03125 C-6.285994 5.53028576 -10.09402111 8.98892969 -14 15 C-14.99176686 16.33946865 -15.98966175 17.67448335 -17 19 C-16.63258872 12.87647862 -15.21348564 10.21348564 -11 6 C-10.34 6 -9.68 6 -9 6 C-9 5.34 -9 4.68 -9 4 C-7.54618103 3.30300448 -6.08677047 2.61766134 -4.625 1.9375 C-3.81289063 1.55464844 -3.00078125 1.17179687 -2.1640625 0.77734375 C-1.44992187 0.52082031 -0.73578125 0.26429688 0 0 Z " fill="#EE332D" transform="translate(327,469)"/>
<path d="M0 0 C2.31 0.66 4.62 1.32 7 2 C7 2.66 7 3.32 7 4 C3.72373625 4.9821994 0.77211881 5.11580914 -2.640625 5.09765625 C-3.71054687 5.09443359 -4.78046875 5.09121094 -5.8828125 5.08789062 C-6.99398437 5.07951172 -8.10515625 5.07113281 -9.25 5.0625 C-10.93996094 5.05573242 -10.93996094 5.05573242 -12.6640625 5.04882812 C-15.44276217 5.03705397 -18.22135409 5.0206084 -21 5 C-21 4.67 -21 4.34 -21 4 C-14.07 3.34 -7.14 2.68 0 2 C0 1.34 0 0.68 0 0 Z " fill="#508238" transform="translate(616,367)"/>
<path d="M0 0 C0.89203125 0.01804687 1.7840625 0.03609375 2.703125 0.0546875 C3.71632813 0.08949219 3.71632813 0.08949219 4.75 0.125 C3.76 0.455 2.77 0.785 1.75 1.125 C1.75 1.785 1.75 2.445 1.75 3.125 C4.39 3.785 7.03 4.445 9.75 5.125 C5.81555683 6.10861079 4.11295623 6.05006994 0.25 5.3125 C-1.15765625 5.05533203 -1.15765625 5.05533203 -2.59375 4.79296875 C-5.06574835 4.17133387 -7.03382683 3.36375717 -9.25 2.125 C-6.03817851 0.21891902 -3.71117397 -0.09766247 0 0 Z " fill="#A30704" transform="translate(414.25,786.875)"/>
<path d="M0 0 C1.765625 1.5234375 1.765625 1.5234375 3 3 C2.2265625 2.97679687 1.453125 2.95359375 0.65625 2.9296875 C-5.63325438 2.82071094 -10.98340199 3.14873907 -17 5 C-15.65668799 2.31337597 -13.81546729 1.70523055 -11.109375 0.609375 C-7.47757204 -0.43981252 -3.71789797 -0.73493332 0 0 Z " fill="#330604" transform="translate(680,289)"/>
<path d="M0 0 C0.66 0.33 1.32 0.66 2 1 C0.92807816 2.3218362 -0.15802695 3.63217927 -1.25 4.9375 C-1.85328125 5.66839844 -2.4565625 6.39929688 -3.078125 7.15234375 C-5.11785563 9.1133043 -6.18801349 9.81989343 -9 10 C-9.66 9.34 -10.32 8.68 -11 8 C-10.18595703 7.51080078 -10.18595703 7.51080078 -9.35546875 7.01171875 C-8.28232422 6.35623047 -8.28232422 6.35623047 -7.1875 5.6875 C-6.47980469 5.25824219 -5.77210938 4.82898438 -5.04296875 4.38671875 C-3.11039769 3.07493533 -1.58589388 1.70596155 0 0 Z " fill="#BF140E" transform="translate(594,694)"/>
<path d="M0 0 C0.66 0 1.32 0 2 0 C1.40895235 4.84659077 0.02055843 8.60748167 -2 13 C-2.33 13 -2.66 13 -3 13 C-3.31563182 7.73946963 -2.66590937 4.55426184 0 0 Z " fill="#DD2E23" transform="translate(187,431)"/>
<path d="M0 0 C1 3 1 3 1 5 C0.01 5.33 -0.98 5.66 -2 6 C-2.7115625 7.4540625 -2.7115625 7.4540625 -3.4375 8.9375 C-5.05210019 12.10211637 -5.73663082 12.87470028 -9 14 C-7.65070536 10.16336928 -5.92248975 7.34827431 -3.375 4.1875 C-2.42753906 3.00220703 -2.42753906 3.00220703 -1.4609375 1.79296875 C-0.97882813 1.20128906 -0.49671875 0.60960937 0 0 Z " fill="#CC2823" transform="translate(220,368)"/>
<path d="M0 0 C0.33 0.66 0.66 1.32 1 2 C-0.5224249 5.57769851 -2.02930459 8.45368965 -5 11 C-5.99 10.67 -6.98 10.34 -8 10 C-5.36 6.7 -2.72 3.4 0 0 Z " fill="#D62515" transform="translate(490,520)"/>
<path d="M0 0 C0.99 0.33 1.98 0.66 3 1 C0.69 3.97 -1.62 6.94 -4 10 C-4.33 9.01 -4.66 8.02 -5 7 C-4.00390625 5.17578125 -4.00390625 5.17578125 -2.5625 3.3125 C-2.08941406 2.68988281 -1.61632812 2.06726563 -1.12890625 1.42578125 C-0.75636719 0.95527344 -0.38382812 0.48476563 0 0 Z " fill="#DA2318" transform="translate(367,585)"/>
<path d="M0 0 C-0.66 0.66 -1.32 1.32 -2 2 C-3.32 2 -4.64 2 -6 2 C-6.33 2.66 -6.66 3.32 -7 4 C-9.31 3.34 -11.62 2.68 -14 2 C-14 1.67 -14 1.34 -14 1 C-9.23692563 0.04738513 -4.8333472 -0.08333357 0 0 Z " fill="#C3211A" transform="translate(373,283)"/>
<path d="M0 0 C0 3 0 3 -1.375 4.6875 C-3 6 -3 6 -5 6 C-5.33 6.99 -5.66 7.98 -6 9 C-6.66 9 -7.32 9 -8 9 C-6.4169423 4.7257442 -3.49431596 2.73468206 0 0 Z " fill="#76AA41" transform="translate(551,474)"/>
<path d="M0 0 C2.475 0.495 2.475 0.495 5 1 C5.6875 2.8125 5.6875 2.8125 6 5 C4.5625 6.75 4.5625 6.75 3 8 C0 3.375 0 3.375 0 0 Z " fill="#5B9642" transform="translate(411,245)"/>
<path d="M0 0 C0.33 1.32 0.66 2.64 1 4 C-0.9375 6.75 -0.9375 6.75 -3 9 C-3.99 8.67 -4.98 8.34 -6 8 C-4.02 5.36 -2.04 2.72 0 0 Z " fill="#78AC44" transform="translate(375,578)"/>
<path d="M0 0 C0.66 0.33 1.32 0.66 2 1 C1.319375 1.763125 0.63875 2.52625 -0.0625 3.3125 C-0.701875 4.199375 -1.34125 5.08625 -2 6 C-1.67 6.99 -1.34 7.98 -1 9 C-2.32 8.34 -3.64 7.68 -5 7 C-4.60196439 4.11424181 -4.20990931 3.17810487 -1.9375 1.25 C-1.298125 0.8375 -0.65875 0.425 0 0 Z " fill="#AA0A05" transform="translate(606,325)"/>
<path d="M0 0 C0.33 0.99 0.66 1.98 1 3 C-0.40445835 5.2636564 -2.1967913 7.0208685 -4 9 C-4.99 8.34 -5.98 7.68 -7 7 C-5.47005208 5.76302083 -3.94010417 4.52604167 -2.41015625 3.2890625 C-0.86733563 2.0333609 -0.86733563 2.0333609 0 0 Z " fill="#CB1C0D" transform="translate(506,692)"/>
<path d="M0 0 C0.99 0.33 1.98 0.66 3 1 C0.03 4.96 0.03 4.96 -3 9 C-3.33 7.68 -3.66 6.36 -4 5 C-3.01 4.67 -2.02 4.34 -1 4 C-0.26676204 1.98491642 -0.26676204 1.98491642 0 0 Z " fill="#DB1D15" transform="translate(357,598)"/>
<path d="M0 0 C0.99 0.33 1.98 0.66 3 1 C1.35 2.65 -0.3 4.3 -2 6 C-2.99 5.67 -3.98 5.34 -5 5 C-3.35 3.35 -1.7 1.7 0 0 Z " fill="#F0D1CE" transform="translate(263,379)"/>
<path d="M0 0 C3.3 0 6.6 0 10 0 C9.67 0.66 9.34 1.32 9 2 C6.125 2.8125 6.125 2.8125 3 3 C2.01 2.01 1.02 1.02 0 0 Z " fill="#1B892F" transform="translate(637,278)"/>
<path d="M0 0 C-1.39332574 3.36720387 -2.9789286 4.9859524 -6 7 C-6.66 6.67 -7.32 6.34 -8 6 C-7.0479279 4.99403703 -6.08812654 3.99538437 -5.125 3 C-4.59132813 2.443125 -4.05765625 1.88625 -3.5078125 1.3125 C-2 0 -2 0 0 0 Z " fill="#BC0F0F" transform="translate(714,604)"/>
<path d="M0 0 C0.66 0.33 1.32 0.66 2 1 C-0.97 4.96 -0.97 4.96 -4 9 C-4.33 8.01 -4.66 7.02 -5 6 C-3.59554165 3.7363436 -1.8032087 1.9791315 0 0 Z " fill="#DC1E15" transform="translate(347,612)"/>
<path d="M0 0 C0.66 0.33 1.32 0.66 2 1 C0.25 7.75 0.25 7.75 -2 10 C-1.125 2.25 -1.125 2.25 0 0 Z " fill="#B11A12" transform="translate(179,459)"/>
<path d="M0 0 C0.99 0.33 1.98 0.66 3 1 C2.54625 1.5775 2.0925 2.155 1.625 2.75 C0.15886484 4.7800333 -0.94857784 6.73539843 -2 9 C-1.125 1.125 -1.125 1.125 0 0 Z " fill="#EA3120" transform="translate(183,445)"/>
<path d="M0 0 C-0.33 1.65 -0.66 3.3 -1 5 C-3.475 4.01 -3.475 4.01 -6 3 C-4.60722783 0.21445565 -3.01148006 0 0 0 Z " fill="#E8E4E0" transform="translate(745,309)"/>
<path d="M0 0 C1.65 0 3.3 0 5 0 C3.70700306 2.88437779 2.34058637 4.87219421 0 7 C0.50603992 4.83125748 0.99983813 3.00032373 2 1 C1.34 0.67 0.68 0.34 0 0 Z " fill="#D92C21" transform="translate(413,521)"/>
<path d="M0 0 C1.43655854 -0.08131463 2.8744483 -0.13933559 4.3125 -0.1875 C5.51326172 -0.23970703 5.51326172 -0.23970703 6.73828125 -0.29296875 C9.47851584 0.06198392 10.29171079 0.89366282 12 3 C8.875 2.47916667 5.75 1.95833333 2.625 1.4375 C1.75875 1.293125 0.8925 1.14875 0 1 C0 0.67 0 0.34 0 0 Z " fill="#1D0502" transform="translate(671,289)"/>
</svg>
